<svg xmlns="http://www.w3.org/2000/svg" viewBox="0 0 256 293" width="100" height="114">
  <title>Composer</title>
  <path fill="#885630" d="M127.887 287.712c-4.276 0-8.08-2.022-10.538-5.616L3.271 115.096c-3.146-4.592-2.907-10.799.596-15.146L117.014 6.228c2.547-2.906 6.211-4.577 10.064-4.589h.096c3.833 0 7.477 1.627 10.035 4.488l113.2 106.785c3.544 4.342 3.815 10.55.678 15.182L137.35 282.054c-2.436 3.603-6.239 5.658-10.538 5.658h-.925z"/>
  <path fill="#795A3D" d="M127.791 13.415c2.227 0 4.342.951 5.818 2.616l113.203 106.785c2.014 2.489 2.164 6.048.373 8.708L133.448 275.484c-1.386 2.062-3.627 3.239-6.096 3.239h-.54c-2.488 0-4.697-1.154-6.085-3.179L6.649 108.544c-1.818-2.665-1.669-6.227.353-8.721L120.149 16.1a7.7 7.7 0 0 1 5.825-2.685h1.817m0-11.777h-1.914c-5.742.019-11.213 2.489-15.025 6.844L-2.295 92.204c-5.264 6.475-5.605 15.762-.89 22.628l114.078 167c3.653 5.387 9.372 8.431 16.011 8.521.366.01.739.01 1.105 0 6.428 0 12.23-2.997 15.929-8.236l113.737-153.96c4.697-6.871 4.29-16.158-1.007-22.583L143.465 98.789c-3.803-4.298-9.222-6.758-14.902-6.758h-.144c-5.766.017-11.253 2.519-15.07 6.878L0 223.109l114.078 167 14.713-153.96z"/>
  <path fill="#E9E7E5" d="M95.194 146.994c-4.896 2.15-11.11 1.389-15.015-2.11-3.667-3.29-4.852-8.356-2.97-12.722 2.11-4.896 7.01-7.964 12.622-7.922 5.609.042 10.527 3.204 12.622 8.106 2.224 5.208.505 11.167-3.72 14.238l-.007.006-3.532.404z"/>
  <path fill="#F0F0F0" d="M102.453 132.346c-2.095-4.902-7.013-8.064-12.622-8.106-5.612-.042-10.512 3.026-12.622 7.922-.935 2.17-1.153 4.479-.737 6.688l12.296-2.62 10.215-5.776 3.47 1.892z"/>
  <path fill="#B78355" d="M195.47 166.078c-4.273 3.833-10.815 4.61-16.048 2.008-6.16-3.074-9.197-10.029-7.304-16.723 2.11-7.516 8.94-12.51 16.722-12.237 7.78.273 14.322 5.77 16.015 13.448 1.798 8.173-1.929 16.533-9.385 19.504z"/>
  <path fill="#D9B38C" d="M204.855 152.574c-1.693-7.678-8.235-13.175-16.015-13.448-7.782-.273-14.612 4.721-16.722 12.237-.62 2.218-.708 4.458-.326 6.598l14.996-4.018 12.449-7.046 5.618 5.677z"/>
</svg>
