<svg xmlns="http://www.w3.org/2000/svg" viewBox="0 0 256 289" width="100" height="113">
  <title>Node.js</title>
  <path fill="#539E43" d="M128 288.464c-3.975 0-7.685-1.06-11.13-3.066l-35.379-20.96c-5.301-2.947-2.712-4.007-1.06-4.537 7.154-2.477 8.479-3.007 15.898-7.28.796-.53 1.856-.265 2.651.265l27.166 16.158c1.06.53 2.386.53 3.181 0l106.011-61.216c1.06-.53 1.59-1.59 1.59-2.917V82.85c0-1.326-.53-2.386-1.59-2.917L128.266 18.722c-1.06-.53-2.386-.53-3.181 0L19.073 79.933c-1.06.53-1.59 1.856-1.59 2.917v122.166c0 1.061.53 2.387 1.59 2.917l29.054 16.689c15.633 7.95 25.437-1.325 25.437-10.599V92.654c0-1.59 1.326-3.18 3.181-3.18h13.513c1.59 0 3.18 1.326 3.18 3.18v121.37c0 20.96-11.394 33.152-31.293 33.152-6.093 0-10.864 0-24.377-6.623l-27.962-16.159C3.71 220.642 0 214.284 0 207.4V85.235c0-6.888 3.71-13.246 9.806-16.688L115.817 7.33c5.831-3.181 13.778-3.181 19.609 0l106.011 61.216c6.096 3.442 9.806 9.8 9.806 16.688v122.166c0 6.887-3.71 13.245-9.806 16.688l-106.01 61.216c-3.446 2.006-7.156 3.066-11.131 3.066l-.296-.216z"/>
  <path fill="#539E43" d="M159.028 207.135c-46.281 0-56.085-21.224-56.085-38.973 0-1.59 1.326-3.181 3.181-3.181h13.778c1.59 0 2.916 1.061 2.916 2.651 2.122 13.778 8.214 20.666 36.174 20.666 22.286 0 31.824-5.037 31.824-16.953 0-6.888-2.651-11.924-37.234-15.369-28.855-2.916-46.81-9.274-46.81-32.356 0-21.49 18.02-34.208 48.136-34.208 33.946 0 50.634 11.659 52.754 37.234 0 .796-.265 1.59-.795 2.386-.53.53-1.325 1.06-2.122 1.06h-13.778c-1.325 0-2.651-1.06-2.916-2.386-3.181-14.573-11.394-19.345-33.151-19.345-24.378 0-27.294 8.479-27.294 14.838 0 7.684 3.446 10.07 36.175 14.307 32.356 4.243 47.929 10.334 47.929 33.152-.266 23.347-19.345 36.439-53.027 36.439l.345-.562z"/>
</svg>
