<svg xmlns="http://www.w3.org/2000/svg" viewBox="0 0 256 134" width="100" height="52">
  <title>PHP</title>
  <ellipse cx="128" cy="67" rx="128" ry="67" fill="#8892BF"/>
  <path fill="#FFFFFF" d="M35.945 106.082l14.028-71.014h28.167c11.878 0 19.202 6.055 19.202 17.418 0 17.418-12.643 28.782-29.296 28.782H55.681l-4.18 24.814H35.945zm23.417-36.836h10.111c8.169 0 13.112-5.707 13.112-12.946 0-5.052-3.179-8.231-9.649-8.231H63.062l-3.7 21.177z"/>
  <path fill="#FFFFFF" d="M93.879 106.082l14.028-71.014h15.558l-3.651 18.436h11.162c11.404 0 17.116 5.052 17.116 14.047 0 3.179-.709 6.829-1.656 10.483l-6.355 28.048h-15.792l5.884-25.579c.474-2.233.946-4.704.946-6.355 0-3.414-1.893-4.704-5.781-4.704h-9.175l-6.592 36.638H93.879z"/>
  <path fill="#FFFFFF" d="M153.316 106.082l14.028-71.014h28.167c11.878 0 19.202 6.055 19.202 17.418 0 17.418-12.643 28.782-29.296 28.782h-12.404l-4.18 24.814h-15.517zm23.417-36.836h10.111c8.169 0 13.112-5.707 13.112-12.946 0-5.052-3.179-8.231-9.649-8.231h-9.874l-3.7 21.177z"/>
</svg>
