<svg xmlns="http://www.w3.org/2000/svg" viewBox="0 0 410 404" width="100" height="99">
  <title>Vite</title>
  <path fill="#41D1FF" d="M399.641 59.525l-183.998 329.02c-3.956 7.082-14.496 6.874-18.123-.36L15.574 59.396c-3.91-7.795 2.651-16.627 11.19-15.063l181.71 33.267a12.16 12.16 0 0 0 4.383 0l178.593-33.235c8.477-1.577 15.068 7.14 11.19 15.16z"/>
  <path fill="#FFDD35" d="M292.965 1.474l-156.801 28.85c-3.458.636-5.852 3.766-5.449 7.121l22.228 184.9c.484 4.02 4.276 6.777 8.155 5.928l39.089-8.56c4.358-.953 8.278 2.552 7.763 6.944l-7.052 60.067c-.546 4.651 3.78 8.304 8.239 6.961l28.174-8.477c4.46-1.34 8.785 2.313 8.238 6.963l-11.139 94.844c-.786 6.695 7.935 10.142 11.847 4.678l2.61-3.645 144.316-289.598c2.178-4.374-1.474-9.345-6.308-8.589l-40.582 6.349c-4.542.711-8.365-3.306-7.396-7.77l17.512-80.595c.966-4.45-2.824-8.456-7.347-7.769z"/>
</svg>
